<?xml version="1.0" encoding="UTF-8"?>
<svg version="1.1" xmlns="http://www.w3.org/2000/svg" width="500" height="500">
<path d="M0 0 C1.28117706 0.02009628 2.56235413 0.04019257 3.88235474 0.06089783 C5.28599253 0.0880963 6.68962814 0.11540711 8.09326172 0.14282227 C9.52529152 0.16712079 10.95732911 0.19096448 12.38937378 0.21437073 C16.16075499 0.27723836 19.9319986 0.34629734 23.70324707 0.41662598 C27.55063606 0.48728528 31.3981227 0.55211661 35.24560547 0.61743164 C42.79649472 0.74647849 50.34724812 0.8820632 57.89794922 1.02172852 C59.09263195 6.60905187 58.99337609 12.02932276 58.91967773 17.70874023 C58.91007019 18.77275558 58.90046265 19.83677094 58.89056396 20.93302917 C58.85766379 24.43922734 58.81729721 27.9452974 58.77685547 31.45141602 C58.75254558 33.88664299 58.72870246 36.32187466 58.70530701 38.7571106 C58.64255258 45.15878667 58.57346143 51.56037926 58.50305176 57.9619751 C58.43229025 64.49747931 58.36752008 71.0330426 58.30224609 77.56860352 C58.17334513 90.38637645 58.03795344 103.20407229 57.89794922 116.02172852 C60.073524 113.88144956 61.94387867 111.71680728 63.77294922 109.27172852 C67.64235199 104.23822576 71.79331355 99.47704129 75.97509766 94.70385742 C80.16342257 89.91114438 84.17267949 85.01367734 88.09326172 79.99829102 C89.89794922 78.02172852 89.89794922 78.02172852 92.89794922 77.02172852 C93.59363683 75.3669654 94.2556426 73.69793388 94.89794922 72.02172852 C96.60498047 69.65454102 96.60498047 69.65454102 98.71044922 67.14672852 C99.51095703 66.19024414 100.31146484 65.23375977 101.13623047 64.24829102 C104.75160579 60.0072031 108.40658599 55.7999339 112.07421875 51.60400391 C116.25563124 46.80912851 120.26335228 41.9066415 124.19091797 36.90063477 C124.75423828 36.2805957 125.31755859 35.66055664 125.89794922 35.02172852 C126.55794922 35.02172852 127.21794922 35.02172852 127.89794922 35.02172852 C128.14544922 34.46485352 128.39294922 33.90797852 128.64794922 33.33422852 C130.12957308 30.59322436 131.91508099 28.43332501 133.89794922 26.02172852 C134.89870919 24.70980789 135.89860867 23.39723069 136.89794922 22.08422852 C140.19045668 17.84896404 143.61304747 13.73460609 147.08544922 9.64672852 C147.85211914 8.73612671 147.85211914 8.73612671 148.63427734 7.80712891 C149.12734375 7.2308374 149.62041016 6.6545459 150.12841797 6.06079102 C150.56565186 5.54726074 151.00288574 5.03373047 151.45336914 4.50463867 C154.39256648 1.48745351 155.97994628 0.10781622 160.34014893 -0.30107117 C161.7310246 -0.29205476 163.12185345 -0.26620864 164.51220703 -0.22705078 C165.27356964 -0.21773529 166.03493225 -0.2084198 166.81936646 -0.19882202 C169.33039299 -0.16450732 171.84044814 -0.10860513 174.35107422 -0.05249023 C176.09411566 -0.02445138 177.83717927 0.00223842 179.58026123 0.02763367 C184.16396595 0.09803927 188.74714 0.1867653 193.33044434 0.27929688 C198.00901351 0.37051286 202.6878525 0.44441779 207.36669922 0.51977539 C216.54412971 0.67014162 225.72109271 0.83986164 234.89794922 1.02172852 C234.05358952 5.35160041 231.70508487 7.68699919 228.71044922 10.77172852 C224.94810381 14.75155054 221.47411202 18.74596531 218.26123047 23.18969727 C216.33639652 25.77636524 214.21331888 28.15860149 212.07373047 30.56860352 C209.20256458 33.80575284 206.36041118 37.06752618 203.52294922 40.33422852 C202.95592285 40.98689697 202.38889648 41.63956543 201.8046875 42.31201172 C198.54148672 46.0818945 195.34387025 49.89251988 192.21044922 53.77172852 C189.18183311 57.51720972 186.03622718 61.10374102 182.77294922 64.64672852 C179.9015542 67.76876598 177.14844978 70.89236481 174.58544922 74.27172852 C170.91674256 79.10578905 166.9390615 83.64639269 162.95092773 88.21630859 C159.27119458 92.43356053 155.62853212 96.6784263 152.02294922 100.95922852 C147.58885208 106.22012881 143.09057735 111.41978908 138.52685547 116.56860352 C136.95699833 118.36526721 135.4244581 120.1879566 133.89794922 122.02172852 C133.45273926 122.55169434 133.0075293 123.08166016 132.54882812 123.62768555 C131.00497863 125.47680188 129.48146738 127.34130306 127.96044922 129.20922852 C127.45094727 129.81589355 126.94144531 130.42255859 126.41650391 131.04760742 C124.80224683 132.99616352 124.80224683 132.99616352 122.89794922 136.02172852 C123.38946695 140.2191896 125.72001839 142.27351988 128.58544922 145.27172852 C132.17928846 149.08399552 135.48589089 152.94039412 138.44873047 157.26782227 C139.92851188 159.18260859 139.92851188 159.18260859 142.31591797 160.93969727 C144.95752806 163.06977015 146.81800039 165.22366928 148.89794922 167.89672852 C152.59731441 172.51784189 156.47393971 176.89202281 160.52294922 181.20922852 C161.08224121 181.80646729 161.6415332 182.40370605 162.21777344 183.01904297 C163.29465923 184.16879474 164.37164067 185.31845692 165.44873047 186.46801758 C169.78998591 191.12228807 173.64352154 195.54837287 176.89794922 201.02172852 C178.51769481 202.734031 180.19384382 204.39336113 181.89794922 206.02172852 C187.2948562 211.18244701 192.07218963 216.60808965 196.74560547 222.43188477 C198.5474492 224.59998348 200.37096736 226.56964668 202.39794922 228.52172852 C205.22344712 231.25001892 207.6855616 234.14870774 210.14794922 237.20922852 C214.35032356 242.42992565 218.80075139 247.35045927 223.35107422 252.26391602 C226.60673094 255.78921302 229.76127942 259.39075862 232.89794922 263.02172852 C234.48598526 264.85477889 236.07458987 266.6873353 237.66333008 268.51977539 C238.81345006 269.84714821 239.96271142 271.17526551 241.11108398 272.50415039 C244.63542607 276.58015098 248.19320879 280.62161371 251.82373047 284.60375977 C252.89794922 286.02172852 252.89794922 286.02172852 252.89794922 288.02172852 C241.29319673 288.39427511 229.68989025 288.67763405 218.08035183 288.85072327 C212.68771511 288.93385154 207.29919975 289.04634534 201.90893555 289.22875977 C196.69544384 289.40406506 191.48588407 289.49855852 186.26967049 289.5397644 C184.29139367 289.56907905 182.31330593 289.6263328 180.33672905 289.71340942 C164.1173754 290.398787 164.1173754 290.398787 157.41921997 284.57080078 C154.11432027 281.26564506 151.18168892 277.73498148 148.38017464 273.99745178 C146.26644764 271.17997236 143.98606861 268.52197623 141.71044922 265.83422852 C140.43351572 264.23491338 139.16223303 262.63106207 137.89794922 261.02172852 C135.09708457 257.51227859 132.28745342 254.01016351 129.46044922 250.52172852 C128.71923828 249.60391602 127.97802734 248.68610352 127.21435547 247.74047852 C124.89422042 245.01735205 122.444217 242.53322178 119.89794922 240.02172852 C113.24223703 233.08588779 106.87846657 225.94872666 100.85888672 218.45141602 C99.16280014 216.34989042 97.42658121 214.30316099 95.64794922 212.27172852 C93.72902465 210.06812832 92.03757129 207.8146522 90.39794922 205.39672852 C88.44628806 202.59275964 86.30978559 200.67996609 83.60888672 198.56860352 C80.51504271 195.77142948 78.07374018 192.40002705 75.48388672 189.14282227 C72.15258395 185.0333377 68.48326099 181.22737733 64.79589844 177.43774414 C60.24828085 172.6564192 60.24828085 172.6564192 59.89794922 169.02172852 C59.23794922 169.02172852 58.57794922 169.02172852 57.89794922 169.02172852 C57.90402474 169.62287161 57.91010027 170.2240147 57.9163599 170.84337425 C58.06369966 185.45646945 58.20543972 200.06961149 58.34091282 214.68282127 C58.40656169 221.74959628 58.47412027 228.81634348 58.54614258 235.88305664 C58.61558909 242.69755919 58.67975611 249.51209491 58.74064445 256.32667923 C58.7647967 258.93191855 58.79074473 261.53714183 58.81848335 264.14234543 C58.85691051 267.77968587 58.88906202 271.41702999 58.91967773 275.05444336 C58.93262375 276.14128922 58.94556976 277.22813507 58.95890808 278.34791565 C58.96946732 279.82872368 58.96946732 279.82872368 58.98023987 281.33944702 C58.98853601 282.20040167 58.99683214 283.06135632 59.00537968 283.9484005 C58.89794922 286.02172852 58.89794922 286.02172852 57.89794922 288.02172852 C49.5880253 288.17543718 41.27802927 288.32361871 32.96788216 288.46469212 C29.10939249 288.53036884 25.25095625 288.59796839 21.39257812 288.66992188 C17.6709041 288.73925593 13.94917451 288.80359193 10.22735214 288.86442375 C8.80551883 288.88854926 7.38371521 288.91449332 5.96194839 288.94226265 C3.97471906 288.98076945 1.98735791 289.01228374 0 289.04345703 C-1.69876785 289.07343529 -1.69876785 289.07343529 -3.43185425 289.10401917 C-6.10205078 289.02172852 -6.10205078 289.02172852 -8.10205078 288.02172852 C-8.10205078 193.31172852 -8.10205078 98.60172852 -8.10205078 1.02172852 C-5.32072009 -0.36893683 -3.11084887 -0.05489733 0 0 Z " fill="#676AF1" transform="translate(74.10205078125,131.978271484375)"/>
<path d="M0 0 C1.13787964 -0.00315216 2.27575928 -0.00630432 3.44812012 -0.009552 C4.6866272 -0.00752777 5.92513428 -0.00550354 7.20117188 -0.00341797 C8.46255981 -0.00437469 9.72394775 -0.00533142 11.02355957 -0.00631714 C13.69689325 -0.00699922 16.37013624 -0.00564076 19.04345703 -0.00097656 C22.47698878 0.00472073 25.91044237 0.00144152 29.34397125 -0.00454903 C32.6088743 -0.00902309 35.87376781 -0.0058943 39.13867188 -0.00341797 C40.37717896 -0.0054422 41.61568604 -0.00746643 42.89172363 -0.009552 C44.02960327 -0.00639984 45.16748291 -0.00324768 46.33984375 0 C47.34720581 0.00079559 48.35456787 0.00159119 49.39245605 0.00241089 C51.66992188 0.12939453 51.66992188 0.12939453 52.66992188 1.12939453 C52.76544388 3.64396491 52.79541994 6.13095309 52.78344727 8.64587402 C52.78359612 9.44231559 52.78374498 10.23875716 52.78389835 11.05933332 C52.78319959 13.74872891 52.77533811 16.43805758 52.76757812 19.12744141 C52.76566053 21.04712384 52.76419599 22.96680676 52.76315308 24.88648987 C52.75998373 29.03025733 52.75370272 33.1740046 52.74508667 37.31776428 C52.73161517 43.86267956 52.725681 50.40758802 52.72094727 56.95251465 C52.70887853 72.02781391 52.68682083 87.10309558 52.66471863 102.17838287 C52.64457053 115.99043672 52.62649354 129.8024847 52.61650372 143.61455011 C52.61150346 150.12814147 52.60161731 156.64170211 52.58807373 163.15528107 C52.58064365 167.1989531 52.5773044 171.24262082 52.57510757 175.28629875 C52.57322658 177.16934908 52.56960801 179.05239854 52.56417465 180.93544197 C52.55701972 183.49461988 52.55591816 186.05372892 52.55639648 188.61291504 C52.55280152 189.368055 52.54920656 190.12319495 52.54550266 190.90121794 C52.24785054 194.3024217 52.24785054 194.3024217 53.66992188 197.12939453 C56.25025692 197.24913412 58.80504354 197.30483523 61.38671875 197.31884766 C62.19480484 197.32714096 63.00289093 197.33543427 63.83546448 197.34397888 C65.59573883 197.36141787 67.35603689 197.37657405 69.11634827 197.38975525 C71.89757485 197.41071161 74.67868205 197.43773928 77.45983887 197.46643066 C83.36315449 197.52623421 89.26652489 197.57834756 95.16992188 197.62939453 C102.00762889 197.68852053 108.84527696 197.75073473 115.68287659 197.8212738 C118.43110281 197.84794973 121.17933462 197.86870314 123.9276123 197.88928223 C125.60278611 197.90587812 127.27795721 197.92274933 128.953125 197.93994141 C130.10954247 197.94621803 130.10954247 197.94621803 131.2893219 197.95262146 C136.55607841 198.01555107 136.55607841 198.01555107 137.66992188 199.12939453 C137.76831401 200.65874083 137.79790726 202.19259019 137.79931641 203.72509766 C137.80246857 204.70281128 137.80562073 205.6805249 137.80886841 206.68786621 C137.80583206 208.28314148 137.80583206 208.28314148 137.80273438 209.91064453 C137.8036911 210.99446411 137.80464783 212.07828369 137.80563354 213.19494629 C137.80631553 215.49161843 137.80445999 217.78829248 137.80029297 220.08496094 C137.79494499 223.61413881 137.80023738 227.1431894 137.80664062 230.67236328 C137.80597985 232.89762398 137.80469869 235.1228846 137.80273438 237.34814453 C137.80475861 238.41166138 137.80678284 239.47517822 137.80886841 240.57092285 C137.80414017 242.03749329 137.80414017 242.03749329 137.79931641 243.53369141 C137.79852081 244.39893433 137.79772522 245.26417725 137.79690552 246.15563965 C137.66992188 248.12939453 137.66992188 248.12939453 136.66992188 249.12939453 C134.85233476 249.23238239 133.03071536 249.26461057 131.21022034 249.26983643 C130.02534027 249.27554657 128.84046021 249.28125671 127.61967468 249.28713989 C126.30795792 249.28825775 124.99624115 249.28937561 123.64477539 249.29052734 C122.25872667 249.29515319 120.87267924 249.30017753 119.4866333 249.30557251 C115.71188572 249.31872012 111.93715595 249.32514592 108.16238904 249.32958317 C105.80667647 249.33250978 103.45096882 249.33661377 101.09525871 249.34108734 C93.73228113 249.3547678 86.36931472 249.36443206 79.0063253 249.36828923 C70.49271916 249.37277308 61.97927332 249.39033369 53.46571594 249.41928983 C46.89416565 249.44086886 40.32266058 249.45099147 33.75107521 249.45233035 C29.82180152 249.453381 25.8926784 249.4593437 21.96344185 249.47714996 C18.26902988 249.49356587 14.57488271 249.49581806 10.88044739 249.48701096 C8.872178 249.48586702 6.86391764 249.49963392 4.85569763 249.51376343 C3.0741478 249.5054097 3.0741478 249.5054097 1.25660706 249.49688721 C0.21996697 249.49835377 -0.81667311 249.49982033 -1.88472652 249.50133133 C-2.69169255 249.37859219 -3.49865858 249.25585304 -4.33007812 249.12939453 C-6.38779454 246.04281991 -6.57998668 245.41988926 -6.57896709 241.93678856 C-6.58586529 240.64860601 -6.58586529 240.64860601 -6.59290284 239.33439958 C-6.58775928 238.39053789 -6.58261571 237.4466762 -6.57731628 236.47421265 C-6.5797307 235.47188461 -6.58214512 234.46955657 -6.58463269 233.43685496 C-6.59028933 230.06265567 -6.58159174 226.68864405 -6.57299805 223.31445312 C-6.57407043 220.9018702 -6.57600845 218.48928753 -6.57875061 216.07670593 C-6.58310362 210.1952487 -6.57814721 204.31384248 -6.56890031 198.43239497 C-6.5585264 191.58872698 -6.55858622 184.7450712 -6.55907289 177.90139683 C-6.55957368 165.69515762 -6.55040665 153.4889446 -6.53588867 141.28271484 C-6.52179471 129.42691572 -6.51471815 117.57113965 -6.51538086 105.71533203 C-6.51542082 104.98487169 -6.51546077 104.25441135 -6.51550194 103.50181584 C-6.51554229 102.77264182 -6.51558265 102.04346779 -6.51562423 101.29219759 C-6.51631328 87.80913189 -6.51042932 74.32607603 -6.50147101 60.84301352 C-6.49844943 56.06748533 -6.49739084 51.29195894 -6.49693871 46.5164299 C-6.49618711 40.09626939 -6.48986243 33.67612844 -6.47977257 27.25597572 C-6.47683944 24.89238573 -6.47562383 22.52879293 -6.4762001 20.16520119 C-6.47668702 16.95364411 -6.4710726 13.74215657 -6.46379089 10.53060913 C-6.4661138 9.10812443 -6.4661138 9.10812443 -6.46848363 7.65690267 C-6.43957822 0.00508584 -6.43957822 0.00508584 0 0 Z " fill="#374151" transform="translate(340.330078125,150.87060546875)"/>
<path d="M0 0 C0.33 0 0.66 0 1 0 C1 81.51 1 163.02 1 247 C47.2 247 93.4 247 141 247 C141 231.16 141 215.32 141 199 C131.92177734 199.01740234 131.92177734 199.01740234 122.66015625 199.03515625 C118.83658748 199.04026298 115.01302288 199.04507675 111.18945312 199.04882812 C105.11433036 199.05481667 99.0392226 199.06191728 92.96411133 199.07543945 C88.06879448 199.08626799 83.17349371 199.09227676 78.27816582 199.09487724 C76.40617049 199.09673155 74.53417609 199.10035228 72.66218758 199.10573006 C70.04959301 199.11294004 67.43706573 199.11399096 64.82446289 199.11352539 C63.65166275 199.1189183 63.65166275 199.1189183 62.45516968 199.12442017 C57.11405216 199.11405216 57.11405216 199.11405216 56 198 C55.9022375 195.4454283 55.87004854 192.91791539 55.87974548 190.36289978 C55.87889106 189.55350199 55.87803663 188.7441042 55.87715632 187.9101792 C55.87549904 185.17699528 55.88102691 182.44387169 55.88647461 179.71069336 C55.88675645 177.75983176 55.8865988 175.80897006 55.8860321 173.85810852 C55.88574402 168.54427841 55.89164246 163.23047066 55.89860606 157.91664577 C55.90483784 152.36993315 55.90544326 146.82322009 55.90663147 141.27650452 C55.90974531 130.76507375 55.9179594 120.25365334 55.92798096 109.74222714 C55.93914047 97.77870865 55.94465214 85.81518968 55.94967639 73.85166728 C55.96014197 49.23443911 55.97774242 24.61722013 56 0 C56.66 0.33 57.32 0.66 58 1 C57.99861731 2.50608401 57.99861731 2.50608401 57.99720669 4.04259396 C57.97503994 28.43596587 57.95858986 52.82933648 57.94818783 77.22271633 C57.94302421 89.01900528 57.93598028 100.81528758 57.92456055 112.61157227 C57.9146157 122.88920997 57.90814705 133.16684287 57.90591151 143.44448525 C57.90460406 148.89001788 57.90151607 154.33553675 57.89426994 159.78106499 C57.88751287 164.90025209 57.8853824 170.0194197 57.88689232 175.13861084 C57.88661585 177.02327136 57.88460888 178.9079325 57.88079453 180.79258919 C57.87586215 183.35401437 57.87700001 185.91536468 57.87974548 188.47679138 C57.87537622 189.6105245 57.87537622 189.6105245 57.87091869 190.76716131 C57.57634105 194.17092664 57.57634105 194.17092664 59 197 C61.58033505 197.11973959 64.13512166 197.1754407 66.71679688 197.18945312 C67.52488297 197.19774643 68.33296906 197.20603973 69.1655426 197.21458435 C70.92581695 197.23202334 72.68611501 197.24717952 74.44642639 197.26036072 C77.22765298 197.28131708 80.00876017 197.30834475 82.78991699 197.33703613 C88.69323261 197.39683968 94.59660301 197.44895303 100.5 197.5 C107.33770701 197.559126 114.17535508 197.6213402 121.01295471 197.69187927 C123.76118093 197.7185552 126.50941274 197.73930861 129.25769043 197.7598877 C130.93286423 197.77648359 132.60803534 197.7933548 134.28320312 197.81054688 C135.43962059 197.8168235 135.43962059 197.8168235 136.61940002 197.82322693 C141.88615654 197.88615654 141.88615654 197.88615654 143 199 C143.09839214 200.5293463 143.12798539 202.06319566 143.12939453 203.59570312 C143.13254669 204.57341675 143.13569885 205.55113037 143.13894653 206.55847168 C143.13591019 208.15374695 143.13591019 208.15374695 143.1328125 209.78125 C143.13376923 210.86506958 143.13472595 211.94888916 143.13571167 213.06555176 C143.13639365 215.3622239 143.13453811 217.65889795 143.13037109 219.95556641 C143.12502312 223.48474428 143.1303155 227.01379487 143.13671875 230.54296875 C143.13605797 232.76822945 143.13477682 234.99349007 143.1328125 237.21875 C143.13483673 238.28226685 143.13686096 239.34578369 143.13894653 240.44152832 C143.13421829 241.90809875 143.13421829 241.90809875 143.12939453 243.40429688 C143.12859894 244.26953979 143.12780334 245.13478271 143.12698364 246.02624512 C143 248 143 248 142 249 C140.18241288 249.10298786 138.36079348 249.13521604 136.54029846 249.14044189 C135.3554184 249.14615204 134.17053833 249.15186218 132.94975281 249.15774536 C131.63803604 249.15886322 130.32631927 249.15998108 128.97485352 249.16113281 C127.5888048 249.16575866 126.20275736 249.17078299 124.81671143 249.17617798 C121.04196385 249.18932559 117.26723407 249.19575139 113.49246716 249.20018864 C111.1367546 249.20311525 108.78104694 249.20721923 106.42533684 249.21169281 C99.06235925 249.22537327 91.69939285 249.23503753 84.33640343 249.2388947 C75.82279729 249.24337854 67.30935145 249.26093916 58.79579407 249.2898953 C52.22424377 249.31147433 45.6527387 249.32159693 39.08115333 249.32293582 C35.15187964 249.32398647 31.22275652 249.32994917 27.29351997 249.34775543 C23.599108 249.36417134 19.90496084 249.36642353 16.21052551 249.35761642 C14.20225612 249.35647249 12.19399577 249.37023939 10.18577576 249.3843689 C8.40422592 249.37601517 8.40422592 249.37601517 6.58668518 249.36749268 C5.5500451 249.36895924 4.51340502 249.3704258 3.4453516 249.3719368 C2.63838557 249.24919765 1.83141954 249.12645851 1 249 C-1.05771641 245.91342538 -1.24990856 245.29049473 -1.24888897 241.80739403 C-1.25578716 240.51921148 -1.25578716 240.51921148 -1.26282471 239.20500505 C-1.25768115 238.26114336 -1.25253759 237.31728167 -1.24723816 236.34481812 C-1.24965257 235.34249008 -1.25206699 234.34016204 -1.25455457 233.30746043 C-1.26021121 229.93326114 -1.25151361 226.55924952 -1.24291992 223.18505859 C-1.2439923 220.77247567 -1.24593033 218.359893 -1.24867249 215.9473114 C-1.25302549 210.06585417 -1.24806909 204.18444795 -1.23882218 198.30300044 C-1.22844827 191.45933245 -1.22850809 184.61567667 -1.22899476 177.77200229 C-1.22949556 165.56576309 -1.22032853 153.35955007 -1.20581055 141.15332031 C-1.19171659 129.29752119 -1.18464002 117.44174512 -1.18530273 105.5859375 C-1.18534269 104.85547716 -1.18538265 104.12501681 -1.18542381 103.37242131 C-1.18546417 102.64324729 -1.18550452 101.91407326 -1.1855461 101.16280305 C-1.18623516 87.67973736 -1.1803512 74.1966815 -1.17139288 60.71361899 C-1.1683713 55.9380908 -1.16731271 51.16256441 -1.16686058 46.38703537 C-1.16610898 39.96687486 -1.15978431 33.54673391 -1.14969444 27.12658119 C-1.14676131 24.7629912 -1.1455457 22.3993984 -1.14612198 20.03580666 C-1.14660889 16.82424958 -1.14099448 13.61276204 -1.13371277 10.4012146 C-1.13603567 8.9787299 -1.13603567 8.9787299 -1.1384055 7.52750814 C-1.11417859 1.11417859 -1.11417859 1.11417859 0 0 Z " fill="#E9EAEC" transform="translate(335,151)"/>
<path d="M0 0 C1.14160583 0.01441132 1.14160583 0.01441132 2.30627441 0.02911377 C4.82781065 0.06215704 7.34917649 0.10246897 9.87060547 0.14282227 C11.61652013 0.16711818 13.36244114 0.190962 15.10836792 0.21437073 C19.70830502 0.27726427 24.30813007 0.34631596 28.90795898 0.41662598 C33.5998829 0.48726188 38.29188638 0.55210721 42.98388672 0.61743164 C52.19360958 0.74651189 61.4032245 0.88209425 70.61279297 1.02172852 C69.76843327 5.35160041 67.41992862 7.68699919 64.42529297 10.77172852 C60.66294756 14.75155054 57.18895577 18.74596531 53.97607422 23.18969727 C52.05124027 25.77636524 49.92816263 28.15860149 47.78857422 30.56860352 C44.91740833 33.80575284 42.07525493 37.06752618 39.23779297 40.33422852 C38.6707666 40.98689697 38.10374023 41.63956543 37.51953125 42.31201172 C34.25633047 46.0818945 31.058714 49.89251988 27.92529297 53.77172852 C24.89667686 57.51720972 21.75107093 61.10374102 18.48779297 64.64672852 C15.61639795 67.76876598 12.86329353 70.89236481 10.30029297 74.27172852 C6.63158631 79.10578905 2.65390525 83.64639269 -1.33422852 88.21630859 C-5.01397178 92.43357211 -8.65599849 96.67894463 -12.26220703 100.95922852 C-13.159172 102.0205705 -14.05630088 103.08177399 -14.95361328 104.14282227 C-16.4425388 105.90419965 -17.92990366 107.66689966 -19.41455078 109.43188477 C-22.81001731 113.40688388 -26.26304516 116.80287047 -30.38720703 120.02172852 C-29.09796723 117.23349615 -27.70101172 115.03176249 -25.66455078 112.73657227 C-25.13087891 112.12942383 -24.59720703 111.52227539 -24.04736328 110.89672852 C-23.47888672 110.25735352 -22.91041016 109.61797852 -22.32470703 108.95922852 C-21.13470242 107.60481537 -19.94590446 106.24934113 -18.75830078 104.89282227 C-18.17806152 104.23008301 -17.59782227 103.56734375 -17 102.88452148 C-14.91058231 100.47122191 -12.89259378 98.00512179 -10.88720703 95.52172852 C-5.75858572 89.19299107 -0.39446032 83.07467017 4.953125 76.93139648 C11.07357757 69.88900461 17.17309634 62.8317005 23.05029297 55.58422852 C27.15259246 50.53239134 31.39981275 45.61866871 35.67285156 40.71166992 C39.65607466 36.13507754 43.59339917 31.52294291 47.50317383 26.88354492 C51.49023642 22.15560116 55.51566688 17.46117072 59.55444336 12.77734375 C60.02615967 12.22892822 60.49787598 11.6805127 60.98388672 11.11547852 C61.39566162 10.63788086 61.80743652 10.1602832 62.23168945 9.66821289 C64.06424017 7.48353514 65.83379772 5.25011458 67.61279297 3.02172852 C57.89418463 2.74257245 48.17697381 2.52992438 38.45521832 2.39998245 C33.93980628 2.33758463 29.42715372 2.25310394 24.91333008 2.11645508 C20.54937385 1.9851838 16.1880545 1.91414462 11.82227516 1.8832016 C10.16466578 1.86118076 8.50718652 1.81817266 6.85071373 1.75296783 C-3.17153643 1.22672665 -3.17153643 1.22672665 -11.80014038 5.62365723 C-14.66099528 8.53313718 -17.01669385 11.70624572 -19.38720703 15.02172852 C-20.60160654 16.45107416 -21.82797696 17.87049361 -23.07470703 19.27172852 C-23.83783203 20.17922852 -24.60095703 21.08672852 -25.38720703 22.02172852 C-25.38720703 18.02339364 -24.02906491 17.21014833 -21.32470703 14.33422852 C-17.72616008 10.46323636 -14.22272669 6.54242183 -10.79736328 2.51782227 C-7.7077503 -0.76007738 -4.18841208 -0.07508407 0 0 Z " fill="#ECECFD" transform="translate(238.38720703125,131.978271484375)"/>
<path d="M0 0 C0.66 0.33 1.32 0.66 2 1 C-2.70371903 7.31153572 -7.77273457 13.26524719 -12.94458008 19.19189453 C-16.62524008 23.40996571 -20.26801162 27.6562905 -23.875 31.9375 C-24.77196497 32.99884199 -25.66909385 34.06004548 -26.56640625 35.12109375 C-28.05533177 36.88247113 -29.54269663 38.64517114 -31.02734375 40.41015625 C-34.42281028 44.38515536 -37.87583813 47.78114196 -42 51 C-40.71076019 48.21176763 -39.31380469 46.01003398 -37.27734375 43.71484375 C-36.74367187 43.10769531 -36.21 42.50054687 -35.66015625 41.875 C-35.09167969 41.235625 -34.52320313 40.59625 -33.9375 39.9375 C-32.74749539 38.58308686 -31.55869743 37.22761261 -30.37109375 35.87109375 C-29.79085449 35.20835449 -29.21061523 34.54561523 -28.61279297 33.86279297 C-26.52337528 31.4494934 -24.50538675 28.98339328 -22.5 26.5 C-18.31584665 21.33179577 -13.97513033 16.31024722 -9.60351562 11.30078125 C-6.35209511 7.57344556 -3.15215078 3.81176752 0 0 Z " fill="#F5F5FE" transform="translate(250,201)"/>
<path d="M0 0 C0.33 0.66 0.66 1.32 1 2 C0.19433594 2.96421875 -0.61132812 3.9284375 -1.44140625 4.921875 C-2.48243754 6.1973728 -3.52276587 7.47344458 -4.5625 8.75 C-5.09552734 9.38421875 -5.62855469 10.0184375 -6.17773438 10.671875 C-6.67724609 11.290625 -7.17675781 11.909375 -7.69140625 12.546875 C-8.15748291 13.11245117 -8.62355957 13.67802734 -9.10375977 14.26074219 C-10.20336504 15.99150878 -10.20336504 15.99150878 -9.73242188 18.109375 C-8.84663189 20.39589422 -7.7208858 21.58044734 -5.9375 23.25 C-5.38964844 23.77078125 -4.84179688 24.2915625 -4.27734375 24.828125 C-3.85582031 25.21484375 -3.43429688 25.6015625 -3 26 C-3.33 26.66 -3.66 27.32 -4 28 C-5.29787866 26.75645114 -6.58806759 25.5048736 -7.875 24.25 C-8.59429687 23.55390625 -9.31359375 22.8578125 -10.0546875 22.140625 C-11.88165538 20.13022661 -12.85624908 18.42991441 -14 16 C-11.85478186 13.52030041 -9.70872226 11.04133053 -7.5625 8.5625 C-6.95083984 7.85544922 -6.33917969 7.14839844 -5.70898438 6.41992188 C-5.12568359 5.74638672 -4.54238281 5.07285156 -3.94140625 4.37890625 C-3.13231812 3.44413452 -3.13231812 3.44413452 -2.30688477 2.49047852 C-1.5608583 1.63964878 -0.80014584 0.80014584 0 0 Z " fill="#F5F5FE" transform="translate(207,252)"/>
</svg>
